<svg width="30" height="25" viewBox="0 0 30 25" fill="none" xmlns="http://www.w3.org/2000/svg">
<path d="M29.5767 20.3631H30V18.5262C30 16.7418 28.5185 15.2723 26.7196 15.2723C25.291 15.2723 24.0212 14.2227 23.8095 12.8582C23.6508 12.0184 23.9153 11.1787 24.4444 10.4965C24.9735 9.86667 25.8201 9.49929 26.6667 9.49929C28.5185 9.49929 30 8.02979 30 6.19291V4.35603H29.5767C26.7725 4.35603 24.3386 2.57163 23.4392 0H17.8836V6.03546C17.8836 7.45248 16.8254 8.71206 15.4497 8.92199C15.2381 8.97447 15.0265 8.97447 14.8677 8.97447C13.3333 8.8695 12.1164 7.60993 12.1164 6.08794V0H6.56085C5.66138 2.57163 3.22751 4.35603 0.423282 4.35603H0V6.19291C0 7.97731 1.48148 9.44681 3.28042 9.44681C4.70899 9.44681 5.97883 10.4965 6.19047 11.861C6.3492 12.7007 6.08466 13.5404 5.55556 14.2227C5.02646 14.8525 4.1799 15.2199 3.33333 15.2199C1.48148 15.2199 0 16.6894 0 18.4738V20.3106H0.423282C3.22751 20.3106 5.66138 22.095 6.56085 24.6667H12.1164V18.6312C12.1164 17.2142 13.1746 15.9546 14.5503 15.7447C14.709 15.6922 14.9206 15.6922 15.0794 15.6922C16.6667 15.7972 17.8836 17.0567 17.8836 18.5787V24.6667H23.4392C24.2857 22.1475 26.7725 20.3631 29.5767 20.3631Z" fill="white"/>
</svg>
