<svg width="30" height="31" viewBox="0 0 30 31" fill="none" xmlns="http://www.w3.org/2000/svg">
<path d="M29.495 26.3956L23.0224 16.8008C22.8701 16.5724 22.6416 16.344 22.4132 16.1917L21.8801 15.8109C21.2709 15.354 21.2709 14.5164 21.8801 14.0595L22.337 13.7549C22.5655 13.6026 22.7939 13.3741 22.9462 13.1457L29.5712 3.70322C30.1042 2.86558 30.1804 1.7995 29.5712 1.03801C28.8097 0.0480703 27.439 -0.180374 26.4491 0.504967L16.8543 6.97763C16.6259 7.12993 16.3974 7.35837 16.2451 7.58682L15.8644 8.11986C15.4075 8.72906 14.5698 8.72906 14.1129 8.11986L13.8083 7.66297C13.656 7.43452 13.4276 7.20608 13.1992 7.05378L3.75668 0.428813C2.91904 -0.10423 1.85295 -0.180379 1.09146 0.428813C0.101526 1.1903 -0.126918 2.56099 0.558423 3.55093L7.03109 13.1457C7.18338 13.3741 7.41183 13.6026 7.64028 13.7549L8.17332 14.1356C8.78251 14.5925 8.78251 15.4302 8.17332 15.8871L7.71642 16.1917C7.48798 16.344 7.25954 16.5724 7.10724 16.8008L0.406127 26.3195C-0.203065 27.2333 -0.126914 28.4516 0.634576 29.2131C1.39607 29.9746 2.61444 30.1269 3.52823 29.5177L13.123 23.0451C13.3515 22.8928 13.5799 22.6643 13.7322 22.4359L14.1129 21.9028C14.5698 21.2936 15.4075 21.2936 15.8644 21.9028L16.169 22.3597C16.3213 22.5882 16.5497 22.8166 16.7782 22.9689L26.3729 29.67C27.2867 30.2792 28.5051 30.2031 29.2666 29.4416C30.0281 28.5278 30.1042 27.3094 29.495 26.3956Z" fill="white"/>
</svg>
